{"title":"Michael Jackson-Smooth Criminal.vob","uid":5067307,"size":412923904,"categoryP":"video","categoryS":"music_videos","magnet":"?xt=urn:btih:412b84a882ecff33092d128305464ab835b1f2e7&amp;dn=Michael+Jackson-Smooth+Criminal.vob&amp;tr=udp%3A%2F%2Ftracker.openbittorrent.com%3A80&amp;tr=udp%3A%2F%2Fopen.demonii.com%3A1337&amp;tr=udp%3A%2F%2Ftracker.coppersurfer.tk%3A6969&amp;tr=udp%3A%2F%2Fexodus.desync.com%3A6969","seeders":0,"leechers":0,"uploader":"djamit","files":1,"time":1251073091,"description":"Michael Jackson-Smooth Criminal.vob\n\nFormat                           : MPEG-PS\nFile size                        : 394 MiB\nDuration                         : 9mn 21s\nOverall bit rate                 : 5 885 Kbps\n\nVideo\nID                               : 224 (0xE0)\nFormat                           : MPEG Video\nFormat version                   : Version 2\nFormat profile                   : Main@Main\nFormat settings, Matrix          : Default\nDuration                         : 9mn 21s\nBit rate mode                    : Variable\nBit rate                         : 5 076 Kbps\nNominal bit rate                 : 7 500 Kbps\nWidth                            : 720 pixels\nHeight                           : 576 pixels\nDisplay aspect ratio             : 4:3\nFrame rate                       : 25.000 fps\nStandard                         : PAL\nColorimetry                      : 4:2:0\nScan type                        : Progressive\nScan order                       : Top Field First\nBits/(Pixel*Frame)               : 0.490\nStream size                      : 340 MiB (86%)\n\nAudio #1\nID                               : 128 (0x80)\nFormat                           : AC-3\nFormat/Info                      : Audio Coding 3\nFormat profile                   : Dolby Digital\nDuration                         : 9mn 21s\nBit rate mode                    : Constant\nBit rate                         : 192 Kbps\nChannel(s)                       : 2 channels\nChannel positions                : L R\nSampling rate                    : 48.0 KHz\nVideo delay                      : -40ms\nStream size                      : 12.8 MiB (3%)\n\nAudio #2\nID                               : 129 (0x81)\nFormat                           : AC-3\nFormat/Info                      : Audio Coding 3\nFormat profile                   : Dolby Digital\nDuration                         : 9mn 21s\nBit rate mode                    : Constant\nBit rate                         : 192 Kbps\nChannel(s)                       : 2 channels\nChannel positions                : L R\nSampling rate                    : 48.0 KHz\nVideo delay                      : -40ms\nStream size                      : 12.8 MiB (3%)\n\nAudio #3\nID                               : 130 (0x82)\nFormat                           : AC-3\nFormat/Info                      : Audio Coding 3\nFormat profile                   : Dolby Digital\nDuration                         : 9mn 21s\nBit rate mode                    : Constant\nBit rate                         : 192 Kbps\nChannel(s)                       : 2 channels\nChannel positions                : L R\nSampling rate                    : 48.0 KHz\nVideo delay                      : -40ms\nStream size                      : 12.8 MiB (3%)","torrent":{"xt":"urn:btih:412b84a882ecff33092d128305464ab835b1f2e7","amp;dn":"Michael+Jackson-Smooth+Criminal.vob","amp;tr":["udp%3A%2F%2Ftracker.openbittorrent.com%3A80","udp%3A%2F%2Fopen.demonii.com%3A1337","udp%3A%2F%2Ftracker.coppersurfer.tk%3A6969","udp%3A%2F%2Fexodus.desync.com%3A6969"],"infoHash":"412b84a882ecff33092d128305464ab835b1f2e7","infoHashBuffer":{"type":"Buffer","data":[65,43,132,168,130,236,255,51,9,45,18,131,5,70,74,184,53,177,242,231]},"announce":[],"urlList":[]}}